<svg xmlns="http://www.w3.org/2000/svg" width="1400" height="900" viewBox="0 0 1400 900" role="img" aria-labelledby="title desc">
  <title id="title">Document grounding placeholder</title>
  <desc id="desc">Stylized placeholder for a file grounding screenshot or illustration.</desc>
  <rect width="1400" height="900" rx="36" fill="#f7f3eb"/>
  <rect x="90" y="80" width="520" height="740" rx="30" fill="#fff" stroke="#d6cec1" stroke-width="4"/>
  <rect x="160" y="160" width="240" height="28" rx="14" fill="#1c7283" opacity="0.22"/>
  <rect x="160" y="228" width="360" height="18" rx="9" fill="#14363f" opacity="0.14"/>
  <rect x="160" y="270" width="320" height="18" rx="9" fill="#14363f" opacity="0.14"/>
  <rect x="160" y="312" width="350" height="18" rx="9" fill="#14363f" opacity="0.14"/>
  <rect x="160" y="390" width="380" height="170" rx="22" fill="#f1ece2"/>
  <rect x="690" y="150" width="620" height="620" rx="30" fill="#14363f"/>
  <rect x="760" y="220" width="350" height="22" rx="11" fill="#fffaf2" opacity="0.92"/>
  <rect x="760" y="280" width="470" height="20" rx="10" fill="#fffaf2" opacity="0.7"/>
  <rect x="760" y="324" width="430" height="20" rx="10" fill="#fffaf2" opacity="0.7"/>
  <rect x="760" y="420" width="480" height="220" rx="24" fill="#fffaf2" opacity="0.95"/>
  <text x="700" y="842" text-anchor="middle" font-family="Manrope, Arial, sans-serif" font-size="36" fill="#14363f">Replace with your own file grounding image</text>
</svg>